Coordinates
version=1
nRows=8
nColumns=46
inDegrees=yes

Units are S.I. units (second, meters, Newtons, ...)
Angles are in degrees.

endheader
time	pelvis_tilt	pelvis_list	pelvis_rotation	pelvis_tx	pelvis_ty	pelvis_tz	bb_angle	bb_tx	bb_ty	bb_tz	hip_flexion_r	hip_adduction_r	hip_rotation_r	knee_angle_r	knee_angle_r_beta	ankle_angle_r	subtalar_angle_r	mtp_angle_r	crank_angle_r	hip_flexion_l	hip_adduction_l	hip_rotation_l	knee_angle_l	knee_angle_l_beta	ankle_angle_l	subtalar_angle_l	mtp_angle_l	crank_angle_l	lumbar_extension	lumbar_bending	lumbar_rotation	arm_flex_r	arm_add_r	arm_rot_r	elbow_flex_r	pro_sup_r	wrist_flex_r	wrist_dev_r	arm_flex_l	arm_add_l	arm_rot_l	elbow_flex_l	pro_sup_l	wrist_flex_l	wrist_dev_l
      7.50000000	    -34.75247144	     -9.69212869	     -7.52854195	      0.40898801	      1.07261549	     -0.25158171	      0.00000000	      0.50000000	      0.00000000	      0.25000000	     71.62092902	      5.02242259	      1.46963604	     99.44537543	      1.73564923	    -22.37137413	     -6.96396335	      0.00000000	      0.00000000	     43.58877924	    -13.92375874	     -3.96979920	     27.83930155	      0.48588747	    -19.79221408	    -11.56976951	      0.00000000	      0.00000000	    -55.36267518	      4.24851826	     -1.76957690	     42.10762368	    -27.21329111	     29.55155075	    101.22574120	     54.03871922	      0.00000000	      0.00000000	      3.97754822	    -24.45270458	     -0.16323085	    123.98344576	     53.85448454	      0.00000000	      0.00000000
      7.50500000	    -34.33173059	    -10.10893906	     -8.45086970	      0.40934188	      1.07252487	     -0.25114382	      0.00000000	      0.50000000	      0.00000000	      0.25000000	     72.72614567	      5.83096084	      1.31657169	    100.91456113	      1.76129135	    -21.69796122	     -6.54261227	      0.00000000	      0.00000000	     41.69265572	    -14.81965606	     -5.02402416	     26.33607211	      0.45965117	    -21.87897542	    -11.96713646	      0.00000000	      0.00000000	    -55.82917081	      4.02256047	     -0.82002586	     42.77894453	    -28.13567511	     30.53165743	    101.47399510	     54.15231889	      0.00000000	      0.00000000	      3.84878834	    -24.09874016	     -0.41370898	    123.82987686	     53.80179724	      0.00000000	      0.00000000
      7.51000000	    -34.13285850	    -10.63122631	     -9.25513336	      0.40938481	      1.07217145	     -0.25078647	      0.00000000	      0.50000000	      0.00000000	      0.25000000	     74.05796889	      6.53408798	      0.93918223	    102.27700538	      1.78507049	    -21.07641957	     -6.43276330	      0.00000000	      0.00000000	     40.20602397	    -15.72941316	     -5.85775511	     25.11562873	      0.43835042	    -23.70089200	    -12.02192186	      0.00000000	      0.00000000	    -56.09106450	      4.09508390	      0.16516993	     43.34707786	    -28.69175396	     31.15489098	    101.73465224	     54.23640657	      0.00000000	      0.00000000	      3.68593939	    -23.95399063	     -0.66167371	    123.71224326	     53.76332613	      0.00000000	      0.00000000
      7.51500000	    -34.10921541	    -11.21706949	    -10.12023468	      0.40920137	      1.07191699	     -0.25019315	      0.00000000	      0.50000000	      0.00000000	      0.25000000	     75.51481137	      7.25520197	      0.30296833	    103.36984810	      1.80414420	    -20.79387655	     -6.22953283	      0.00000000	      0.00000000	     38.98457834	    -16.74784686	     -6.66772105	     24.08490242	      0.42036085	    -25.46548715	    -11.98531656	      0.00000000	      0.00000000	    -56.24677376	      4.14096931	      1.21416468	     43.71492500	    -29.03886030	     31.40600286	    101.92598940	     54.28231124	      0.00000000	      0.00000000	      3.49397969	    -23.84779579	     -0.87514812	    123.64382571	     53.73808882	      0.00000000	      0.00000000
      7.52000000	    -34.22968315	    -11.72922023	    -10.80350837	      0.40882008	      1.07152782	     -0.24973565	      0.00000000	      0.50000000	      0.00000000	      0.25000000	     77.08947323	      7.77660363	     -0.35470054	    104.38639633	      1.82188631	    -20.25085945	     -6.23004290	      0.00000000	      0.00000000	     38.09339394	    -17.62481748	     -7.40199077	     23.27473258	      0.40622072	    -27.11322423	    -11.62253688	      0.00000000	      0.00000000	    -56.29778916	      4.31670062	      2.08156517	     44.05017659	    -29.13745784	     31.43071929	    102.08169840	     54.29595929	      0.00000000	      0.00000000	      3.39470963	    -23.83706351	     -1.04301021	    123.62262737	     53.71482409	      0.00000000	      0.00000000
      7.52500000	    -34.16388074	    -12.11498742	    -11.58112994	      0.40899059	      1.07179527	     -0.24939894	      0.00000000	      0.50000000	      0.00000000	      0.25000000	     78.38650279	      8.33377638	     -0.80865011	    105.20528084	      1.83617854	    -19.80771118	     -5.94222249	      0.00000000	      0.00000000	     36.82139274	    -18.33448063	     -8.26718102	     22.27459409	      0.38876501	    -29.36478109	    -12.36325571	      0.00000000	      0.00000000	    -56.57566703	      4.14023651	      3.48945497	     43.84625481	    -30.73105340	     31.62981991	    103.47698300	     54.52667807	      0.00000000	      0.00000000	      4.01671270	    -23.29559062	     -0.78340841	    123.15726470	     53.75215756	      0.00000000	      0.00000000
      7.53000000	    -34.38178661	    -12.72529733	    -12.33987358	      0.40932439	      1.07221666	     -0.24819311	      0.00000000	      0.50000000	      0.00000000	      0.25000000	     79.76599298	      9.09891661	     -1.59491633	    105.75188360	      1.84571856	    -19.25335436	     -6.02082317	      0.00000000	      0.00000000	     36.03396529	    -19.42114911	     -9.12185482	     21.59458126	      0.37689654	    -31.49265719	    -11.76598204	      0.00000000	      0.00000000	    -56.65689291	      4.17844342	      4.44277312	     43.92236087	    -30.67259084	     31.59138654	    103.54720025	     54.53047088	      0.00000000	      0.00000000	      3.90010918	    -23.26265613	     -0.89564711	    123.10944103	     53.73887222	      0.00000000	      0.00000000
      7.53500000	    -34.58660649	    -12.86734340	    -13.04548190	      0.40908996	      1.07229199	     -0.24798458	      0.00000000	      0.50000000	      0.00000000	      0.25000000	     81.25436187	      9.50777953	     -1.90099861	    106.25653592	      1.85452640	    -18.87614503	     -5.85549169	      0.00000000	      0.00000000	     35.32480918	    -19.89575429	     -9.99045726	     21.02243950	      0.36691079	    -33.62799212	    -12.21184680	      0.00000000	      0.00000000	    -56.67843351	      3.95891149	      6.06945963	     42.82426322	    -32.06082469	     30.50914191	    105.21067685	     54.66329665	      0.00000000	      0.00000000	      5.05686392	    -22.68215805	      0.03232464	    122.18509345	     53.80193865	      0.00000000	      0.00000000
